<?xml version="1.0" encoding="UTF-8"?> <svg xmlns="http://www.w3.org/2000/svg" xmlns:xlink="http://www.w3.org/1999/xlink" width="30px" height="31px" viewBox="0 0 30 31"> <title>turbo-checkball</title> <g id="Page-1" stroke="none" stroke-width="1" fill="none" fill-rule="evenodd"> <g id="turbo-checkball" fill="#D52B1E"> <path d="M13.2433601,27.0331578 C10.9396794,25.6184507 7.58397707,23.1051494 5.07449042,20.9102729 C5.53601165,19.5417981 6.05529314,18.2016405 6.63289565,16.8932676 C8.20756348,18.329935 9.85120713,19.6880077 11.5593404,20.9582389 C14.3671615,15.4542885 18.309439,10.6588474 23.0620421,6.89727518 C23.9991041,7.8623736 24.7752224,8.99275233 25.3483386,10.2410233 C20.8879013,13.868522 16.2306306,19.0656058 13.2433601,27.0331578 M14.881396,0 C6.66261695,0 2.89826642e-15,6.86549049 2.89826642e-15,15.3352404 C2.89826642e-15,23.8049902 6.66261695,30.6710587 14.881396,30.6710587 C23.100175,30.6710587 29.762792,23.8049902 29.762792,15.3352404 C29.762792,6.86549049 23.100175,0 14.881396,0" id="Shape"></path> </g> </g> </svg> 